<?xml version="1.0" encoding="iso-8859-1"?>
<!-- Generator: Adobe Illustrator 19.0.0, SVG Export Plug-In . SVG Version: 6.00 Build 0)  -->
<svg version="1.1" id="Capa_1" xmlns="http://www.w3.org/2000/svg" xmlns:xlink="http://www.w3.org/1999/xlink" x="0px" y="0px"
	 viewBox="0 0 512 512" style="enable-background:new 0 0 512 512;" xml:space="preserve">
<g>
	<g>
		<path d="M51.2,51.2v238.933h409.6V51.2H51.2z M70.767,104.9L104.9,70.767c3.328-3.337,8.738-3.337,12.066,0
			c3.337,3.336,3.337,8.73,0,12.066l-34.133,34.133c-1.664,1.664-3.849,2.5-6.033,2.5c-2.185,0-4.369-0.836-6.033-2.5
			C67.43,113.63,67.43,108.237,70.767,104.9z M76.8,170.667c-2.185,0-4.369-0.836-6.033-2.5c-3.337-3.337-3.337-8.73,0-12.066
			L156.1,70.767c3.328-3.337,8.738-3.337,12.066,0c3.337,3.336,3.337,8.73,0,12.066l-85.333,85.333
			C81.169,169.83,78.985,170.667,76.8,170.667z M176.7,134.033l-34.133,34.133c-1.664,1.664-3.849,2.5-6.033,2.5
			c-2.185,0-4.369-0.836-6.033-2.5c-3.337-3.337-3.337-8.73,0-12.066l34.133-34.133c3.328-3.337,8.738-3.337,12.066,0
			C180.028,125.303,180.028,130.697,176.7,134.033z"/>
	</g>
</g>
<g>
	<g>
		<path d="M469.333,307.2H42.667H0v68.258C0,394.283,15.317,409.6,34.142,409.6H204.39c-2.031,33.843-16.111,51.2-42.257,51.2
			H145.05c-14.106,0-25.583,11.477-25.583,25.583v17.084c0,4.719,3.823,8.533,8.533,8.533h256c4.71,0,8.533-3.814,8.533-8.533
			v-17.084c0-14.106-11.477-25.583-25.583-25.583h-17.084c-26.146,0-40.226-17.357-42.257-51.2h170.249
			c18.825,0,34.142-15.317,34.142-34.142V307.2H469.333z M230.4,332.8c0-4.719,3.823-8.533,8.533-8.533h34.133
			c4.71,0,8.533,3.814,8.533,8.533c0,4.719-3.823,8.533-8.533,8.533h-25.6V358.4h25.6c4.71,0,8.533,3.814,8.533,8.533
			s-3.823,8.533-8.533,8.533h-34.133c-4.71,0-8.533-3.814-8.533-8.533V332.8z M308.301,460.8h-104.61
			c10.513-11.631,16.7-28.971,17.937-51.2h68.736C291.61,431.829,297.796,449.169,308.301,460.8z"/>
	</g>
</g>
<g>
	<g>
		<path d="M477.858,0H34.142C15.317,0,0,15.317,0,34.142v255.992h34.133V42.667c0-4.719,3.823-8.533,8.533-8.533h426.667
			c4.71,0,8.533,3.814,8.533,8.533v247.467H512V34.142C512,15.317,496.683,0,477.858,0z"/>
	</g>
</g>
<g>
</g>
<g>
</g>
<g>
</g>
<g>
</g>
<g>
</g>
<g>
</g>
<g>
</g>
<g>
</g>
<g>
</g>
<g>
</g>
<g>
</g>
<g>
</g>
<g>
</g>
<g>
</g>
<g>
</g>
</svg>
